<svg width="616" height="205" viewBox="0 0 616 205" fill="none" xmlns="http://www.w3.org/2000/svg">
<path d="M72.6201 14C72.3383 15.5097 85.5967 29.8756 85.625 29.9062C85.6178 29.9004 75.9239 22.0848 71.4238 15.4814C72.2454 21.052 74.7512 28.6648 79.8955 33.0449C84.5218 36.9839 88.4564 39.849 92.1504 39.248C95.2942 44.8543 96.1414 49.5666 96.4551 53.9082C96.5398 55.0803 96.5859 56.227 96.627 57.3672C96.6679 58.5023 96.7041 59.6385 96.7705 60.7627C96.8428 61.9868 96.9543 63.2125 97.1465 64.4473C96.75 64.1335 96.3157 63.8006 95.8506 63.4541C93.9692 62.0525 91.5515 60.4072 89.0225 58.8848C86.4985 57.3654 83.8337 55.951 81.4639 55.0283C80.3395 54.5906 79.2558 54.2541 78.2686 54.0742C78.2694 54.0153 78.2697 53.9817 78.2695 53.9785C78.2695 53.9785 78.9988 51.4129 70.9307 49.0254C62.8628 46.638 59.6502 46.9225 55.1973 48.8359C56.1491 50.0058 59.619 51.1136 59.624 51.1152C59.6368 51.1243 61.4102 52.3873 55.1895 51.2842C60.3185 54.9162 62.8814 57.0019 70.8105 58.2041C75.2155 58.8719 77.0206 57.4006 77.7598 56.0146C77.7675 56.0159 77.7754 56.0173 77.7832 56.0186C78.6287 56.1597 79.6276 56.4592 80.7383 56.8916C82.959 57.7562 85.515 59.107 87.9912 60.5977C90.4621 62.0851 92.8248 63.694 94.6553 65.0576C95.5708 65.7396 96.3459 66.3551 96.9307 66.8584C97.5068 67.3543 97.8287 67.6854 97.9482 67.8428C100.842 73.2837 104.172 80.1395 106.653 85.7666C117.865 112.569 123.446 128.475 129.159 151.777C125.067 141.85 120.784 134.931 117.062 130.179C114.165 126.478 111.612 124.093 109.765 122.626C108.841 121.892 108.095 121.388 107.571 121.063C107.309 120.901 107.103 120.785 106.958 120.706C106.886 120.667 106.829 120.636 106.788 120.615C106.784 120.613 106.779 120.61 106.775 120.608C106.743 120.587 106.694 120.555 106.631 120.514C106.501 120.428 106.31 120.301 106.067 120.136C105.582 119.804 104.889 119.319 104.069 118.711C102.426 117.492 100.282 115.785 98.2559 113.822C96.2205 111.851 94.3497 109.666 93.208 107.494C92.3212 105.807 91.9215 104.22 92.1299 102.774C95.2618 101.55 98.4708 98.6927 100.761 94.7246C103.414 90.1263 102.573 87.9582 101.479 84.4639C100.558 88.6026 94.7686 95.1035 94.7686 95.1035C94.7869 95.0715 99.9265 86.0827 99.2217 85.3291C96.7374 86.3976 92.2476 87.8609 90.6934 92.752C89.2981 97.1426 88.6461 100.138 90.1543 102.438C89.8475 104.458 90.4331 106.514 91.4375 108.425C92.7214 110.867 94.7628 113.224 96.8643 115.26C98.4953 116.839 100.192 118.25 101.656 119.388C100.089 118.973 98.2555 118.438 96.333 117.775C93.6148 116.838 90.7402 115.653 88.1973 114.205C85.6437 112.751 83.491 111.069 82.1436 109.166L82.1348 109.153L82.125 109.142C78.9912 104.989 73.5596 98.6672 69.8633 94.8652C68.1422 88.8989 67.7987 84.488 68.0469 81.4199C68.2283 79.1779 68.7185 77.7123 69.1689 76.8691C72.0279 76.1848 74.8354 74.1771 76.7275 71.1455C78.9656 67.5593 78.3603 62.9662 77.0811 59.8398C76.013 59.9109 71.0098 70.6963 71.0098 70.6963C71.0099 70.696 72.9233 63.2684 75.7354 59.3281C72.4005 60.7702 68.2912 63.6157 67.126 67.5938C66.0643 71.2184 65.4835 74.2119 67.1475 76.458C66.6287 77.6267 66.2171 79.2273 66.0527 81.2588C65.8306 84.0058 66.0494 87.6202 67.1045 92.2051C62.4045 87.977 57.9968 85.5054 54.584 84.0674C52.5698 83.2187 50.9044 82.7313 49.7324 82.4551C49.1465 82.317 48.6837 82.2319 48.3623 82.1807C48.3075 82.1719 48.2565 82.1651 48.21 82.1582C48.1157 82.0672 47.9949 81.9523 47.8496 81.8154C47.4616 81.4499 46.8968 80.9294 46.1846 80.3066C44.7612 79.0621 42.7423 77.4017 40.3633 75.7393C36.0593 72.7317 30.4155 69.6049 24.918 69.0879C22.3497 66.0621 17.605 63.7156 11.9824 63.0723C6.02688 62.3909 4.1636 64.2007 1.04199 66.8506C1.04199 66.8506 4.04443 69.3565 6.19336 70.6191C9.21847 72.3966 11.3667 72.0778 14.8701 72.2686C18.6233 72.4729 22.2434 72.7953 24.2129 71.04C29.2993 71.3432 34.8052 74.2955 39.2178 77.3789C41.5229 78.9897 43.4838 80.6021 44.8682 81.8125C45.1935 82.097 45.4861 82.3596 45.7441 82.5938C45.4613 82.67 45.1494 82.7542 44.8135 82.8477C43.1788 83.3025 40.9584 83.9578 38.6211 84.7559C36.2876 85.5527 33.8166 86.4992 31.6895 87.541C29.989 88.3739 28.416 89.3115 27.3223 90.3398C21.9839 89.031 14.9499 90.2602 8.4375 94.1299C1.48381 98.2618 1.05287 101.882 0 107.507C0.0523169 107.511 5.38488 107.909 8.75391 107.59C13.5202 107.138 19.4521 102.325 19.4521 102.325C19.4783 102.308 27.9315 96.7883 28.3711 92.1221C29.1719 91.2319 30.6464 90.2788 32.5693 89.3369C34.5902 88.3471 36.9734 87.4318 39.2676 86.6484C41.5578 85.8664 43.7393 85.2225 45.3496 84.7744C46.1539 84.5506 46.8148 84.3764 47.2734 84.2578C47.5027 84.1985 47.6818 84.1523 47.8027 84.1221C47.8047 84.1216 47.8067 84.1206 47.8086 84.1201C47.8702 84.1284 47.95 84.1398 48.0469 84.1553C48.3223 84.1992 48.7374 84.275 49.2734 84.4014C50.3458 84.6541 51.9045 85.1083 53.8076 85.9102C57.6114 87.5129 62.8031 90.5097 68.2539 96.0801C70.5798 98.4571 73.6683 101.928 76.4121 105.208C73.4737 103.575 70.355 102.367 67.4053 101.872C64.9395 101.458 62.5273 101.531 60.4248 102.333C58.684 102.997 57.1996 104.147 56.1006 105.843C56.0803 105.837 56.0693 105.834 56.0693 105.834C56.0342 105.816 53.6625 104.636 50.7793 110.082C47.8747 115.569 47.8946 118.083 49.3672 121.975C50.5562 121.564 51.8828 119.223 51.8828 119.223C51.8828 119.223 53.2402 118.191 51.6973 122.635C55.5565 119.711 57.7432 118.323 59.5088 112.625C60.5032 109.416 59.1946 107.647 57.916 106.727C58.7686 105.499 59.867 104.687 61.1377 104.202C62.8072 103.565 64.8355 103.469 67.0742 103.845C71.5298 104.593 76.5654 107.171 80.6035 110.445C82.1912 112.63 84.582 114.448 87.208 115.943C89.8946 117.473 92.893 118.705 95.6807 119.666C98.4718 120.629 101.074 121.328 102.977 121.786C103.929 122.015 104.708 122.185 105.251 122.298C105.522 122.354 105.735 122.396 105.88 122.424C105.908 122.429 105.933 122.433 105.956 122.438C105.97 122.445 105.986 122.454 106.003 122.463C106.115 122.524 106.289 122.622 106.519 122.764C106.977 123.048 107.659 123.507 108.521 124.191C110.243 125.56 112.685 127.832 115.487 131.411C121.091 138.569 128.149 150.971 133.764 171.858L135.707 171.386C127.899 135.471 122.675 118.884 108.491 84.9775L108.483 84.96L108.482 84.957C108.482 84.9508 108.465 84.8888 108.461 84.7422C108.456 84.558 108.47 84.3054 108.512 83.9824C108.594 83.3373 108.773 82.4939 109.042 81.5078C109.578 79.5398 110.448 77.0884 111.519 74.6709C112.592 72.2487 113.85 69.9003 115.149 68.1191C115.799 67.2288 116.441 66.5056 117.054 65.9883C117.224 65.845 117.387 65.7219 117.544 65.6162C119.095 65.8566 122.032 65.6072 127.287 63.1191C135.186 56.6347 135.849 51.6981 137 45.9658C135.188 46.1385 120.78 61.7629 120.729 61.8184C120.764 61.7576 127.583 50.0651 134.574 44.3262C127.199 45.6206 122.308 48.8887 117.42 55.1123C116.22 56.64 116.036 62.2559 116.008 64.2637C115.926 64.3275 115.844 64.3917 115.765 64.459C114.989 65.1136 114.24 65.9716 113.533 66.9404C112.119 68.8783 110.795 71.366 109.69 73.8604C108.583 76.3593 107.678 78.9064 107.112 80.9824C107.057 81.185 107.006 81.3844 106.957 81.5791C104.715 76.7034 102.082 71.3583 99.7285 66.9316C99.1333 64.8601 98.8938 62.7986 98.7666 60.6445C98.7019 59.5493 98.6664 58.4424 98.625 57.2949C98.5838 56.1528 98.5377 54.9755 98.4502 53.7646C98.1103 49.0597 97.1555 43.8624 93.5537 37.6768C93.913 33.1128 92.116 27.4512 88.3008 22.4033C84.0884 16.8301 77.4495 14.4406 72.6201 14Z" fill="#F0E6DA"/>
<path d="M177.198 53.2103C178.077 54.2659 173.993 71.2834 173.993 71.2834C173.993 71.2834 178.146 60.9573 178.776 53.8438C180.564 58.5455 181.93 65.574 179.829 71.2323C177.96 76.2629 176.162 80.1811 173.085 81.3731C173.072 87.1167 174.464 91.1554 176.111 94.6752C176.556 95.6241 177.019 96.5366 177.484 97.4434C177.947 98.3457 178.414 99.2485 178.853 100.155C179.292 101.064 179.71 101.988 180.078 102.948C180.223 102.602 180.381 102.237 180.551 101.856C181.408 99.9399 182.577 97.599 183.887 95.306C185.194 93.0183 186.658 90.7478 188.109 88.9885C188.801 88.1491 189.509 87.4052 190.211 86.8272C190.056 86.6403 188.836 84.8566 193.787 79.7837C199.036 74.4043 201.665 73.2247 205.972 72.775C205.741 74.0934 203.546 76.4478 203.514 76.4821C203.514 76.4821 202.661 78.2662 207.046 74.6805C204.63 79.749 203.541 82.4936 197.883 86.8884C194.824 89.2638 192.802 88.9863 191.607 88.2709C191.592 88.283 191.576 88.2948 191.56 88.3072C190.97 88.7798 190.327 89.4431 189.652 90.2615C188.303 91.8973 186.903 94.0592 185.623 96.2985C184.347 98.5326 183.208 100.814 182.376 102.673C181.961 103.602 181.626 104.417 181.39 105.061C181.159 105.695 181.057 106.082 181.033 106.245C181.149 111.744 181.542 118.533 182.06 123.997C184.941 149.223 187.476 163.965 192.928 183.938C191.976 175.071 192.307 168.238 193.098 163.157C193.744 159 194.698 156.02 195.501 154.062C195.903 153.084 196.267 152.362 196.536 151.877C196.671 151.635 196.781 151.451 196.861 151.325C196.9 151.262 196.932 151.213 196.955 151.178C196.957 151.176 196.958 151.174 196.959 151.173C196.975 151.142 196.998 151.098 197.028 151.042C197.091 150.919 197.184 150.736 197.301 150.502C197.535 150.032 197.863 149.355 198.236 148.524C198.984 146.86 199.91 144.599 200.633 142.19C201.359 139.77 201.861 137.262 201.805 135.088C201.76 133.372 201.372 131.969 200.572 130.953C197.616 131.324 193.923 130.489 190.455 128.422C186.381 125.994 186.091 123.937 185.42 120.736C187.936 123.553 195.252 126.092 195.291 126.106C195.264 126.089 187.337 121.321 187.558 120.426C189.961 120.175 194.099 119.358 197.444 122.494C200.381 125.248 202.183 127.272 202.098 129.654C203.291 131.132 203.752 133.055 203.803 135.036C203.868 137.517 203.301 140.257 202.549 142.765C202.025 144.512 201.4 146.176 200.81 147.603C201.757 146.673 202.812 145.587 203.878 144.393C205.586 142.48 207.306 140.309 208.653 138.079C210.006 135.838 210.943 133.603 211.162 131.554L211.163 131.538L211.165 131.524C211.797 126.924 213.273 119.64 214.497 115.058C213.241 109.68 211.592 106.111 210.072 103.844C208.911 102.112 207.863 101.192 207.16 100.763C204.66 101.424 201.658 101.068 198.913 99.558C195.604 97.7376 194.072 93.8922 193.706 90.8967C194.569 90.4869 203.153 96.6993 203.174 96.7148C203.153 96.6927 198.435 91.7539 194.533 89.9119C197.762 89.5821 202.207 90.0086 204.85 92.6023C207.218 94.9259 208.956 96.9763 208.711 99.3987C209.652 100.092 210.697 101.185 211.733 102.73C213.075 104.732 214.445 107.557 215.605 111.436C217.415 106.24 219.727 102.479 221.728 99.9125C222.932 98.3677 224.023 97.2576 224.82 96.5275C225.218 96.1628 225.544 95.8925 225.774 95.7108C225.803 95.6876 225.832 95.6661 225.858 95.6457C225.891 95.5389 225.931 95.4074 225.979 95.2537C226.123 94.7984 226.337 94.1457 226.621 93.3484C227.189 91.7548 228.04 89.5759 229.172 87.238C231.233 82.9823 234.311 78.0204 238.443 75.214C239.172 71.7731 241.83 67.9436 245.875 65.0326C250.221 61.9047 252.463 62.503 256.052 63.208C256.052 63.208 254.804 66.4719 253.679 68.3933C252.095 71.0979 250.281 71.7856 247.633 73.4618C244.858 75.2181 242.232 77.0063 239.965 76.6073C236.112 79.0268 233.085 83.7483 230.973 88.11C229.88 90.3665 229.056 92.4755 228.505 94.0201C228.402 94.3088 228.31 94.5779 228.226 94.8239C228.428 94.7736 228.644 94.7194 228.873 94.6637C230.347 94.3053 232.366 93.847 234.539 93.4497C236.708 93.0531 239.053 92.7126 241.172 92.5971C242.527 92.5233 243.856 92.5387 245.01 92.7168C250.188 89.4311 269.015 95.2261 269.071 95.2434L254.071 95.2433C254.084 95.253 257.597 97.8238 271.071 97.8238C271.071 97.8238 269.653 97.9071 266.873 99.4888C262.978 101.705 256.298 100.225 256.237 100.211C256.237 100.211 246.85 99.3856 244.699 94.6907C243.783 94.5508 242.621 94.5219 241.281 94.5949C239.28 94.7039 237.027 95.028 234.899 95.4171C232.775 95.8055 230.795 96.2546 229.345 96.6071C228.621 96.7831 228.03 96.9345 227.622 97.0419C227.426 97.0932 227.272 97.1338 227.166 97.1627C227.124 97.1938 227.073 97.2329 227.013 97.2803C226.819 97.4331 226.531 97.6718 226.17 98.0022C225.448 98.6632 224.436 99.6928 223.306 101.143C221.047 104.041 218.311 108.628 216.494 115.333C215.756 118.057 214.912 121.852 214.222 125.443C215.745 123.072 217.549 120.944 219.512 119.369C221.263 117.963 223.193 116.957 225.207 116.661C226.884 116.416 228.573 116.673 230.196 117.535C230.475 117.218 231.975 115.923 236.121 118.603C240.778 121.615 241.86 123.584 242.409 127.26C241.309 127.458 239.268 126.225 239.247 126.212C239.247 126.212 237.739 125.999 240.88 128.791C236.596 128.194 234.285 128.065 230.424 124.392C228.304 122.375 228.487 120.471 229.05 119.195C227.868 118.618 226.678 118.468 225.497 118.641C223.942 118.869 222.336 119.667 220.764 120.929C217.637 123.438 214.847 127.62 213.13 131.916C212.84 134.329 211.762 136.799 210.366 139.112C208.933 141.484 207.128 143.758 205.371 145.726C203.611 147.697 201.885 149.378 200.599 150.567C199.956 151.162 199.421 151.634 199.046 151.959C198.859 152.122 198.711 152.248 198.609 152.333C198.595 152.346 198.58 152.357 198.567 152.368C198.562 152.376 198.557 152.385 198.551 152.394C198.492 152.488 198.4 152.639 198.285 152.847C198.053 153.265 197.724 153.917 197.352 154.822C196.609 156.632 195.698 159.46 195.074 163.465C193.828 171.473 193.731 184.206 198.458 202.928L196.531 203.465C186.957 172.051 183.797 156.834 180.071 124.205L180.069 124.186C180.069 124.179 180.068 124.171 180.067 124.164C180.072 124.231 180.086 124.203 180.003 124.046C179.931 123.906 179.813 123.721 179.642 123.489C179.3 123.028 178.797 122.452 178.159 121.802C176.887 120.506 175.144 118.977 173.258 117.562C171.369 116.144 169.371 114.866 167.591 114.048C166.701 113.64 165.893 113.359 165.201 113.226C164.96 113.179 164.742 113.153 164.545 113.142C163.386 113.988 160.977 115.007 155.991 115.345C147.004 113.733 144.335 110.174 140.938 106.206C142.429 105.549 160.537 111.472 160.537 111.472C160.537 111.472 150.089 105.3 142.114 103.87C148.43 101.663 153.669 102.078 160.193 104.8C161.756 105.452 164.261 109.558 165.216 111.201C165.337 111.218 165.458 111.238 165.579 111.262C166.481 111.436 167.447 111.782 168.425 112.231C170.382 113.13 172.506 114.497 174.458 115.962C176.415 117.431 178.236 119.026 179.587 120.402C179.646 120.463 179.704 120.525 179.762 120.585C179.396 115.887 179.128 110.702 179.034 106.319C178.598 104.458 177.89 102.756 177.053 101.027C176.626 100.146 176.172 99.2693 175.704 98.356C175.238 97.4473 174.76 96.5071 174.3 95.5228C172.493 91.6641 170.956 87.137 171.096 80.6384C168.898 77.2348 167.873 72.1123 168.635 66.5997C169.489 60.4175 173.624 55.6596 177.198 53.2103Z" fill="#F0E6DA"/>
<path d="M324.514 24C324.766 25.3502 312.896 38.21 312.896 38.21C312.896 38.21 321.56 31.2245 325.582 25.3232C324.848 30.2998 322.609 37.1007 318.014 41.0137C313.928 44.4925 310.446 47.0347 307.179 46.5732C304.364 51.5798 303.607 55.784 303.327 59.6602C303.252 60.7052 303.211 61.7276 303.174 62.7461C303.137 63.7594 303.104 64.7755 303.045 65.7812C302.985 66.7887 302.899 67.799 302.751 68.8164C303.047 68.5854 303.363 68.3437 303.697 68.0947C305.381 66.8406 307.543 65.3678 309.806 64.0059C312.063 62.647 314.449 61.3801 316.574 60.5527C317.588 60.158 318.569 59.854 319.464 59.6924C319.42 59.4536 319.226 57.3013 326.022 55.29C333.23 53.1572 336.1 53.4109 340.078 55.1201C339.234 56.1584 336.169 57.142 336.124 57.1562C336.124 57.1562 334.508 58.2968 340.086 57.3076C335.504 60.5524 333.214 62.4163 326.13 63.4902C322.301 64.0706 320.671 62.8411 319.978 61.6338C319.958 61.6368 319.939 61.6393 319.919 61.6426C319.173 61.767 318.288 62.0321 317.3 62.417C315.324 63.1863 313.046 64.3896 310.837 65.7197C308.633 67.0467 306.524 68.482 304.892 69.6982C304.075 70.3065 303.385 70.8543 302.865 71.3018C302.354 71.7418 302.076 72.0295 301.976 72.1602C299.393 77.0168 296.422 83.1341 294.208 88.1553C284.41 111.579 279.427 125.683 274.437 145.776C277.934 137.573 281.557 131.771 284.728 127.722C287.321 124.409 289.608 122.273 291.265 120.957C292.093 120.299 292.763 119.847 293.234 119.555C293.47 119.409 293.656 119.303 293.787 119.231C293.852 119.196 293.904 119.168 293.941 119.149C293.943 119.148 293.945 119.147 293.947 119.146C293.976 119.128 294.018 119.101 294.071 119.065C294.186 118.989 294.357 118.875 294.573 118.728C295.006 118.432 295.623 118 296.354 117.458C297.82 116.371 299.732 114.849 301.538 113.1C303.353 111.342 305.015 109.398 306.027 107.473C306.826 105.953 307.171 104.54 306.97 103.262C304.208 102.143 301.393 99.6117 299.375 96.1152C297.004 92.0072 297.755 90.0708 298.731 86.9492C299.553 90.6366 304.699 96.4228 304.727 96.4541C304.711 96.4263 300.12 88.3956 300.749 87.7217C302.968 88.6762 306.98 89.9832 308.368 94.3525C309.588 98.1901 310.173 100.836 308.936 102.873C309.256 104.745 308.719 106.649 307.797 108.403C306.642 110.599 304.811 112.714 302.93 114.536C301.62 115.805 300.262 116.952 299.051 117.91C300.331 117.561 301.782 117.128 303.295 116.606C305.719 115.77 308.281 114.715 310.545 113.426C312.82 112.131 314.728 110.637 315.919 108.955L315.928 108.942L315.937 108.931C318.734 105.224 323.577 99.5873 326.882 96.1855C328.41 90.8783 328.713 86.9592 328.493 84.2383C328.325 82.1601 327.859 80.845 327.455 80.1279C324.95 79.485 322.504 77.7088 320.845 75.0508C318.845 71.8469 319.385 67.7432 320.528 64.9502C321.481 65.0136 325.941 74.6255 325.952 74.6494C325.945 74.6198 324.237 68.0064 321.73 64.4941C324.71 65.7824 328.381 68.3241 329.422 71.8779C330.354 75.0616 330.87 77.6994 329.475 79.6943C329.957 80.759 330.336 82.2225 330.486 84.0771C330.681 86.4789 330.498 89.6133 329.616 93.5654C333.732 89.9137 337.586 87.7599 340.585 86.4961C342.39 85.7356 343.883 85.2988 344.936 85.0508C345.461 84.9269 345.877 84.8499 346.167 84.8037C346.204 84.7978 346.24 84.793 346.272 84.7881C346.353 84.7107 346.452 84.6154 346.569 84.5049C346.917 84.1776 347.422 83.7125 348.06 83.1553C349.333 82.0417 351.139 80.5553 353.269 79.0674C357.144 76.3589 362.252 73.5304 367.229 73.0977C369.545 70.4505 373.733 68.4053 378.685 67.8389C384.005 67.2302 385.669 68.8466 388.458 71.2139C388.458 71.2139 385.775 73.4531 383.855 74.5811C381.153 76.1686 379.234 75.8834 376.104 76.0537C372.825 76.2322 369.661 76.5112 367.877 75.0566C363.334 75.288 358.387 77.9311 354.414 80.707C352.359 82.1432 350.61 83.5817 349.376 84.6611C349.145 84.8629 348.933 85.0526 348.74 85.2266C348.941 85.281 349.156 85.3391 349.383 85.4023C350.844 85.809 352.83 86.3946 354.921 87.1084C357.008 87.8209 359.22 88.668 361.126 89.6016C362.672 90.359 364.112 91.2194 365.104 92.1699C369.858 91.0495 376.083 92.1569 381.851 95.584C388.063 99.2753 388.448 102.509 389.389 107.534C389.342 107.538 384.578 107.894 381.568 107.608C377.31 107.204 372.011 102.905 372.011 102.905C371.96 102.872 364.664 98.1002 364.066 93.9814C363.396 93.1704 362.051 92.2825 360.246 91.3984C358.446 90.517 356.322 89.7001 354.274 89.001C352.231 88.3032 350.284 87.729 348.847 87.3291C348.129 87.1293 347.539 86.973 347.13 86.8672C346.934 86.8166 346.78 86.7769 346.673 86.75C346.622 86.757 346.558 86.7663 346.482 86.7783C346.239 86.8172 345.871 86.8848 345.395 86.9971C344.442 87.2216 343.055 87.626 341.361 88.3398C337.975 89.7665 333.349 92.435 328.49 97.4004C326.517 99.4173 323.928 102.318 321.572 105.115C324.059 103.789 326.672 102.812 329.154 102.396C331.369 102.024 333.545 102.087 335.446 102.812C337.03 103.417 338.379 104.465 339.374 106.01C339.773 105.87 341.715 105.471 344.024 109.834C346.619 114.736 346.603 116.983 345.287 120.459C344.23 120.094 343.051 118.023 343.039 118.001C343.039 118.001 341.827 117.079 343.205 121.049C339.757 118.437 337.804 117.197 336.227 112.106C335.36 109.311 336.45 107.739 337.563 106.899C336.814 105.819 335.849 105.107 334.733 104.682C333.265 104.122 331.473 104.034 329.485 104.368C325.532 105.032 321.055 107.32 317.46 110.232C316.029 112.196 313.883 113.826 311.535 115.163C309.127 116.534 306.441 117.638 303.947 118.498C301.45 119.359 299.122 119.985 297.42 120.395C296.568 120.6 295.87 120.751 295.385 120.852C295.142 120.902 294.952 120.94 294.821 120.965C294.802 120.969 294.784 120.971 294.768 120.975C294.759 120.979 294.75 120.984 294.741 120.989C294.643 121.043 294.49 121.129 294.287 121.255C293.881 121.506 293.275 121.915 292.509 122.523C290.977 123.741 288.801 125.764 286.303 128.955C281.307 135.336 275.007 146.402 269.994 165.05L268.051 164.578C275.027 132.487 279.696 117.663 292.37 87.3662L292.378 87.3486C292.381 87.3421 292.384 87.3356 292.387 87.3291C292.359 87.3895 292.383 87.3719 292.389 87.1943C292.393 87.0372 292.381 86.8175 292.345 86.5322C292.272 85.9626 292.113 85.2143 291.874 84.3359C291.396 82.5835 290.621 80.3986 289.666 78.2432C288.709 76.0832 287.589 73.993 286.435 72.4102C285.857 71.6188 285.289 70.9803 284.75 70.5254C284.563 70.3673 284.385 70.238 284.219 70.1328C282.794 70.3055 280.195 70.0186 275.678 67.8799C268.621 62.087 268.029 57.6776 267 52.5566C268.622 52.7112 281.536 66.7188 281.536 66.7188C281.536 66.7188 275.429 56.232 269.167 51.0918C275.756 52.2482 280.126 55.1677 284.492 60.7275C285.538 62.0591 285.72 66.8661 285.752 68.7656C285.849 68.8399 285.945 68.9167 286.039 68.9961C286.741 69.5882 287.415 70.3618 288.05 71.2314C289.319 72.971 290.505 75.2005 291.494 77.4326C292.485 79.6694 293.297 81.9501 293.804 83.8105C293.826 83.8927 293.846 83.9749 293.867 84.0557C295.841 79.7767 298.137 75.1208 300.195 71.249C300.722 69.4117 300.936 67.5813 301.049 65.6631C301.107 64.6863 301.138 63.6995 301.175 62.6738C301.212 61.6532 301.254 60.5996 301.332 59.5156C301.639 55.2662 302.507 50.5646 305.801 44.9609C305.544 40.9174 307.149 35.9464 310.505 31.5068C314.268 26.528 320.199 24.3936 324.514 24Z" fill="#F0E6DA"/>
<path d="M410.198 31.2103C411.077 32.2659 406.993 49.2834 406.993 49.2834C406.993 49.2834 411.146 38.9573 411.776 31.8438C413.564 36.5455 414.93 43.574 412.829 49.2323C410.96 54.2629 409.162 58.1811 406.085 59.3731C406.072 65.1167 407.464 69.1554 409.111 72.6752C409.556 73.6241 410.019 74.5366 410.484 75.4434C410.947 76.3457 411.414 77.2485 411.853 78.1554C412.292 79.0638 412.71 79.9879 413.078 80.9479C413.223 80.602 413.381 80.2367 413.551 79.8562C414.408 77.9399 415.577 75.599 416.887 73.306C418.194 71.0183 419.658 68.7478 421.109 66.9885C421.801 66.1491 422.509 65.4052 423.211 64.8272C423.056 64.6403 421.836 62.8566 426.787 57.7837C432.036 52.4043 434.665 51.2247 438.972 50.775C438.741 52.0934 436.546 54.4478 436.514 54.4821C436.514 54.4821 435.661 56.2662 440.046 52.6805C437.63 57.749 436.541 60.4936 430.883 64.8884C427.824 67.2638 425.802 66.9863 424.607 66.2709C424.592 66.283 424.576 66.2948 424.56 66.3072C423.97 66.7798 423.327 67.4431 422.652 68.2615C421.303 69.8973 419.903 72.0592 418.623 74.2985C417.347 76.5326 416.208 78.8145 415.376 80.6728C414.961 81.6022 414.626 82.4171 414.39 83.0614C414.159 83.6949 414.057 84.0817 414.033 84.2448C414.149 89.7441 414.542 96.5332 415.06 101.997C417.941 127.223 420.476 141.965 425.928 161.938C424.976 153.071 425.307 146.238 426.098 141.157C426.744 137 427.698 134.02 428.501 132.062C428.903 131.084 429.267 130.362 429.536 129.877C429.671 129.635 429.781 129.451 429.861 129.325C429.9 129.262 429.932 129.213 429.955 129.178C429.957 129.176 429.958 129.174 429.959 129.173C429.975 129.142 429.998 129.098 430.028 129.042C430.091 128.919 430.184 128.736 430.301 128.502C430.535 128.032 430.863 127.355 431.236 126.524C431.984 124.86 432.91 122.599 433.633 120.19C434.359 117.77 434.861 115.262 434.805 113.088C434.76 111.372 434.372 109.969 433.572 108.953C430.616 109.324 426.923 108.489 423.455 106.422C419.381 103.994 419.091 101.937 418.42 98.7361C420.936 101.553 428.252 104.092 428.291 104.106C428.264 104.089 420.337 99.3208 420.558 98.4255C422.961 98.1754 427.099 97.3583 430.444 100.494C433.381 103.248 435.183 105.272 435.098 107.654C436.291 109.132 436.752 111.055 436.803 113.036C436.868 115.517 436.301 118.257 435.549 120.765C435.025 122.512 434.4 124.176 433.81 125.603C434.757 124.673 435.812 123.587 436.878 122.393C438.586 120.48 440.306 118.309 441.653 116.079C443.006 113.838 443.943 111.603 444.162 109.554L444.163 109.538L444.165 109.524C444.797 104.924 446.273 97.6398 447.497 93.0577C446.241 87.6796 444.592 84.1111 443.072 81.8437C441.911 80.112 440.863 79.1916 440.16 78.7629C437.66 79.4243 434.658 79.0682 431.913 77.558C428.604 75.7376 427.072 71.8922 426.706 68.8967C427.569 68.4869 436.153 74.6993 436.174 74.7148C436.153 74.6927 431.435 69.7539 427.533 67.9119C430.762 67.5821 435.207 68.0086 437.85 70.6023C440.218 72.9259 441.956 74.9763 441.711 77.3987C442.652 78.0924 443.697 79.1847 444.733 80.7302C446.075 82.7317 447.445 85.5565 448.605 89.4362C450.415 84.2402 452.727 80.4794 454.728 77.9125C455.932 76.3677 457.023 75.2576 457.82 74.5275C458.218 74.1628 458.544 73.8925 458.774 73.7108C458.803 73.6876 458.832 73.6661 458.858 73.6457C458.891 73.5389 458.931 73.4074 458.979 73.2537C459.123 72.7984 459.337 72.1457 459.621 71.3484C460.189 69.7548 461.04 67.5759 462.172 65.238C464.233 60.9823 467.311 56.0204 471.443 53.214C472.172 49.7731 474.83 45.9436 478.875 43.0326C483.221 39.9047 485.463 40.503 489.052 41.208C489.052 41.208 487.804 44.4719 486.679 46.3933C485.095 49.0979 483.281 49.7856 480.633 51.4618C477.858 53.2181 475.232 55.0063 472.965 54.6073C469.112 57.0268 466.085 61.7483 463.973 66.11C462.88 68.3665 462.056 70.4755 461.505 72.0201C461.402 72.3088 461.31 72.5779 461.226 72.8239C461.428 72.7736 461.644 72.7194 461.873 72.6637C463.347 72.3053 465.366 71.847 467.539 71.4497C469.708 71.0531 472.053 70.7126 474.172 70.5971C475.527 70.5233 476.856 70.5387 478.01 70.7168C483.188 67.4311 502.015 73.2261 502.071 73.2434L487.071 73.2433C487.084 73.253 490.597 75.8238 504.071 75.8238C504.071 75.8238 502.653 75.9071 499.873 77.4888C495.978 79.7052 489.298 78.225 489.237 78.2115C489.237 78.2115 479.85 77.3856 477.699 72.6907C476.783 72.5508 475.621 72.5219 474.281 72.5949C472.28 72.7039 470.027 73.028 467.899 73.4171C465.775 73.8055 463.795 74.2546 462.345 74.6071C461.621 74.7831 461.03 74.9345 460.622 75.0419C460.426 75.0932 460.272 75.1338 460.166 75.1627C460.124 75.1938 460.073 75.2329 460.013 75.2803C459.819 75.4331 459.531 75.6718 459.17 76.0022C458.448 76.6632 457.436 77.6928 456.306 79.1427C454.047 82.0406 451.311 86.6277 449.494 93.3329C448.756 96.0566 447.912 99.8521 447.222 103.443C448.745 101.072 450.549 98.944 452.512 97.3685C454.263 95.9628 456.193 94.9566 458.207 94.6615C459.884 94.4158 461.573 94.6726 463.196 95.5349C463.475 95.218 464.975 93.9225 469.121 96.6029C473.778 99.6145 474.86 101.584 475.409 105.26C474.309 105.458 472.268 104.225 472.247 104.212C472.247 104.212 470.739 103.999 473.88 106.791C469.596 106.194 467.285 106.065 463.424 102.392C461.304 100.375 461.487 98.4713 462.05 97.1951C460.868 96.6184 459.678 96.4678 458.497 96.6408C456.942 96.8687 455.336 97.667 453.764 98.9287C450.637 101.438 447.847 105.62 446.13 109.916C445.84 112.329 444.762 114.799 443.366 117.112C441.933 119.484 440.128 121.758 438.371 123.726C436.611 125.697 434.885 127.378 433.599 128.567C432.956 129.162 432.421 129.634 432.046 129.959C431.859 130.122 431.711 130.248 431.609 130.333C431.595 130.346 431.58 130.357 431.567 130.368C431.562 130.376 431.557 130.385 431.551 130.394C431.492 130.488 431.4 130.639 431.285 130.847C431.053 131.265 430.724 131.917 430.352 132.822C429.609 134.632 428.698 137.46 428.074 141.465C426.828 149.473 426.731 162.206 431.458 180.928L429.531 181.465C419.957 150.051 416.797 134.834 413.071 102.205L413.069 102.186C413.069 102.179 413.068 102.171 413.067 102.164C413.072 102.231 413.086 102.203 413.003 102.046C412.931 101.906 412.813 101.721 412.642 101.489C412.3 101.028 411.797 100.452 411.159 99.8022C409.887 98.5058 408.144 96.9774 406.258 95.5622C404.369 94.144 402.371 92.8661 400.591 92.0484C399.701 91.6395 398.893 91.3594 398.201 91.2256C397.96 91.1791 397.742 91.1528 397.545 91.1422C396.386 91.9882 393.977 93.0066 388.991 93.3446C380.004 91.733 377.335 88.1735 373.938 84.206C375.429 83.5495 393.537 89.4718 393.537 89.4718C393.537 89.4718 383.089 83.2999 375.114 81.8698C381.43 79.6632 386.669 80.0785 393.193 82.7999C394.756 83.4517 397.261 87.5584 398.216 89.2006C398.337 89.2179 398.458 89.2383 398.579 89.2616C399.481 89.4358 400.447 89.7819 401.425 90.2312C403.382 91.1299 405.506 92.4969 407.458 93.9624C409.415 95.431 411.236 97.0255 412.587 98.4018C412.646 98.4626 412.704 98.5246 412.762 98.5847C412.396 93.8865 412.128 88.7022 412.034 84.3185C411.598 82.4577 410.89 80.756 410.053 79.0265C409.626 78.1458 409.172 77.2693 408.704 76.356C408.238 75.4473 407.76 74.5071 407.3 73.5228C405.493 69.6641 403.956 65.137 404.096 58.6384C401.898 55.2348 400.873 50.1123 401.635 44.5997C402.489 38.4175 406.624 33.6596 410.198 31.2103Z" fill="#F0E6DA"/>
<path d="M551.62 7.00003C551.338 8.50972 564.597 22.8756 564.625 22.9063C564.618 22.9005 554.924 15.0848 550.424 8.48148C551.245 14.052 553.751 21.6648 558.896 26.045C563.522 29.9839 567.456 32.8491 571.15 32.2481C574.294 37.8543 575.141 42.5667 575.455 46.9082C575.54 48.0804 575.586 49.227 575.627 50.3672C575.668 51.5023 575.704 52.6385 575.771 53.7627C575.843 54.9869 575.954 56.2125 576.146 57.4473C575.75 57.1335 575.316 56.8006 574.851 56.4541C572.969 55.0525 570.551 53.4072 568.022 51.8848C565.499 50.3654 562.834 48.951 560.464 48.0284C559.339 47.5906 558.256 47.2542 557.269 47.0742C557.269 47.0153 557.27 46.9817 557.27 46.9785C557.27 46.9785 557.999 44.4129 549.931 42.0254C541.863 39.6381 538.65 39.9225 534.197 41.836C535.149 43.0058 538.619 44.1137 538.624 44.1153C538.637 44.1243 540.41 45.3873 534.189 44.2842C539.318 47.9162 541.881 50.002 549.811 51.2041C554.215 51.8719 556.021 50.4006 556.76 49.0147C556.768 49.016 556.775 49.0173 556.783 49.0186C557.629 49.1597 558.628 49.4592 559.738 49.8916C561.959 50.7562 564.515 52.107 566.991 53.5977C569.462 55.0851 571.825 56.694 573.655 58.0576C574.571 58.7397 575.346 59.3551 575.931 59.8584C576.507 60.3544 576.829 60.6854 576.948 60.8428C579.842 66.2837 583.172 73.1395 585.653 78.7666C596.865 105.569 602.446 121.475 608.159 144.777C604.067 134.85 599.784 127.931 596.062 123.179C593.165 119.478 590.612 117.094 588.765 115.626C587.841 114.892 587.095 114.388 586.571 114.064C586.309 113.901 586.103 113.785 585.958 113.706C585.886 113.667 585.829 113.636 585.788 113.615C585.784 113.613 585.779 113.61 585.775 113.608C585.743 113.587 585.694 113.555 585.631 113.514C585.501 113.428 585.31 113.301 585.067 113.136C584.582 112.804 583.889 112.319 583.069 111.711C581.426 110.492 579.282 108.785 577.256 106.822C575.221 104.851 573.35 102.666 572.208 100.494C571.321 98.8073 570.922 97.2205 571.13 95.7744C574.262 94.5498 577.471 91.6927 579.761 87.7246C582.414 83.1264 581.573 80.9582 580.479 77.4639C579.558 81.6026 573.769 88.1035 573.769 88.1035C573.787 88.0715 578.927 79.0828 578.222 78.3291C575.737 79.3976 571.248 80.8609 569.693 85.752C568.298 90.1426 567.646 93.1385 569.154 95.4385C568.847 97.4583 569.433 99.5143 570.438 101.425C571.721 103.867 573.763 106.224 575.864 108.26C577.495 109.84 579.192 111.25 580.656 112.388C579.089 111.973 577.255 111.438 575.333 110.775C572.615 109.838 569.74 108.653 567.197 107.205C564.644 105.751 562.491 104.069 561.144 102.166L561.135 102.153L561.125 102.142C557.991 97.989 552.56 91.6672 548.863 87.8653C547.142 81.899 546.799 77.488 547.047 74.42C547.228 72.1779 547.719 70.7124 548.169 69.8692C551.028 69.1848 553.835 67.1771 555.728 64.1455C557.966 60.5593 557.36 55.9662 556.081 52.8399C555.013 52.9109 550.01 63.6963 550.01 63.6963C550.01 63.696 551.923 56.2685 554.735 52.3282C551.4 53.7702 547.291 56.6157 546.126 60.5938C545.064 64.2184 544.484 67.2119 546.147 69.458C545.629 70.6268 545.217 72.2273 545.053 74.2588C544.831 77.0059 545.049 80.6203 546.104 85.2051C541.404 80.977 536.997 78.5054 533.584 77.0674C531.57 76.2188 529.904 75.7313 528.732 75.4551C528.147 75.317 527.684 75.232 527.362 75.1807C527.307 75.1719 527.256 75.1651 527.21 75.1582C527.116 75.0673 526.995 74.9523 526.85 74.8155C526.462 74.45 525.897 73.9294 525.185 73.3067C523.761 72.0621 521.742 70.4018 519.363 68.7393C515.059 65.7317 509.416 62.6049 503.918 62.0879C501.35 59.0621 496.605 56.7156 490.982 56.0723C485.027 55.3909 483.164 57.2007 480.042 59.8506C480.042 59.8506 483.044 62.3565 485.193 63.6192C488.218 65.3966 490.367 65.0779 493.87 65.2686C497.623 65.4729 501.243 65.7953 503.213 64.0401C508.299 64.3432 513.805 67.2955 518.218 70.3789C520.523 71.9897 522.484 73.6021 523.868 74.8125C524.193 75.097 524.486 75.3596 524.744 75.5938C524.461 75.67 524.149 75.7542 523.813 75.8477C522.179 76.3026 519.958 76.9578 517.621 77.7559C515.288 78.5527 512.817 79.4992 510.689 80.541C508.989 81.3739 507.416 82.3115 506.322 83.3399C500.984 82.031 493.95 83.2603 487.438 87.1299C480.484 91.2618 480.053 94.882 479 100.507C479.052 100.511 484.385 100.909 487.754 100.59C492.52 100.138 498.452 95.3252 498.452 95.3252C498.478 95.3082 506.932 89.7883 507.371 85.1221C508.172 84.2319 509.646 83.2788 511.569 82.3369C513.59 81.3472 515.973 80.4318 518.268 79.6485C520.558 78.8664 522.739 78.2225 524.35 77.7744C525.154 77.5506 525.815 77.3764 526.273 77.2578C526.503 77.1986 526.682 77.1524 526.803 77.1221C526.805 77.1216 526.807 77.1206 526.809 77.1201C526.87 77.1285 526.95 77.1398 527.047 77.1553C527.322 77.1992 527.737 77.2751 528.273 77.4014C529.346 77.6541 530.904 78.1083 532.808 78.9102C536.611 80.5129 541.803 83.5097 547.254 89.0801C549.58 91.4571 552.668 94.9281 555.412 98.208C552.474 96.5748 549.355 95.3674 546.405 94.8721C543.939 94.4581 541.527 94.5312 539.425 95.333C537.684 95.9972 536.2 97.1474 535.101 98.8428C535.08 98.8373 535.069 98.834 535.069 98.834C535.034 98.8161 532.663 97.636 529.779 103.082C526.875 108.569 526.895 111.083 528.367 114.975C529.556 114.564 530.883 112.223 530.883 112.223C530.883 112.223 532.24 111.191 530.697 115.635C534.557 112.711 536.743 111.323 538.509 105.625C539.503 102.416 538.195 100.647 536.916 99.7266C537.769 98.499 538.867 97.687 540.138 97.2022C541.807 96.5654 543.835 96.4689 546.074 96.8448C550.53 97.593 555.565 100.171 559.604 103.445C561.191 105.63 563.582 107.448 566.208 108.943C568.895 110.473 571.893 111.705 574.681 112.666C577.472 113.629 580.074 114.328 581.977 114.786C582.929 115.015 583.708 115.185 584.251 115.298C584.522 115.354 584.735 115.396 584.88 115.424C584.908 115.429 584.933 115.433 584.956 115.438C584.97 115.445 584.986 115.454 585.003 115.463C585.115 115.524 585.289 115.622 585.519 115.764C585.977 116.048 586.659 116.507 587.521 117.191C589.243 118.56 591.685 120.832 594.487 124.411C600.091 131.569 607.149 143.971 612.764 164.858L614.707 164.386C606.899 128.471 601.675 111.884 587.491 77.9776L587.483 77.96L587.482 77.9571C587.482 77.9508 587.465 77.8889 587.461 77.7422C587.456 77.558 587.47 77.3054 587.512 76.9825C587.594 76.3373 587.773 75.494 588.042 74.5078C588.578 72.5399 589.448 70.0884 590.519 67.6709C591.592 65.2487 592.85 62.9003 594.149 61.1192C594.799 60.2288 595.441 59.5056 596.054 58.9883C596.224 58.845 596.387 58.7219 596.544 58.6162C598.095 58.8567 601.032 58.6072 606.287 56.1192C614.186 49.6347 614.849 44.6981 616 38.9659C614.188 39.1386 599.78 54.763 599.729 54.8184C599.764 54.7576 606.583 43.0652 613.574 37.3262C606.199 38.6207 601.308 41.8888 596.42 48.1123C595.22 49.6401 595.036 55.256 595.008 57.2637C594.926 57.3276 594.844 57.3918 594.765 57.459C593.989 58.1136 593.24 58.9716 592.533 59.9405C591.119 61.8784 589.795 64.366 588.69 66.8604C587.583 69.3593 586.678 71.9064 586.112 73.9825C586.057 74.185 586.006 74.3844 585.957 74.5791C583.715 69.7034 581.082 64.3583 578.729 59.9317C578.133 57.8601 577.894 55.7987 577.767 53.6446C577.702 52.5493 577.666 51.4424 577.625 50.295C577.584 49.1528 577.538 47.9755 577.45 46.7647C577.11 42.0597 576.155 36.8624 572.554 30.6768C572.913 26.1128 571.116 20.4513 567.301 15.4034C563.088 9.83015 556.449 7.44064 551.62 7.00003Z" fill="#F0E6DA"/>
</svg>
