<svg width="398" height="191" viewBox="0 0 398 191" fill="none" xmlns="http://www.w3.org/2000/svg">
<path d="M332.514 8C332.766 9.35025 320.896 22.21 320.896 22.21C320.896 22.21 329.56 15.2245 333.582 9.32324C332.848 14.2998 330.609 21.1007 326.014 25.0137C321.928 28.4925 318.446 31.0347 315.179 30.5732C312.364 35.5798 311.607 39.784 311.327 43.6602C311.252 44.7052 311.211 45.7276 311.174 46.7461C311.137 47.7594 311.104 48.7755 311.045 49.7812C310.985 50.7887 310.899 51.799 310.751 52.8164C311.047 52.5854 311.363 52.3437 311.697 52.0947C313.381 50.8406 315.543 49.3678 317.806 48.0059C320.063 46.647 322.449 45.3801 324.574 44.5527C325.588 44.158 326.569 43.854 327.464 43.6924C327.42 43.4536 327.226 41.3013 334.022 39.29C341.23 37.1572 344.1 37.4109 348.078 39.1201C347.234 40.1584 344.169 41.142 344.124 41.1562C344.124 41.1562 342.508 42.2968 348.086 41.3076C343.504 44.5524 341.214 46.4163 334.13 47.4902C330.301 48.0706 328.671 46.8411 327.978 45.6338C327.958 45.6368 327.939 45.6393 327.919 45.6426C327.173 45.767 326.288 46.0321 325.3 46.417C323.324 47.1863 321.046 48.3896 318.837 49.7197C316.633 51.0467 314.524 52.482 312.892 53.6982C312.075 54.3065 311.385 54.8543 310.865 55.3018C310.354 55.7418 310.076 56.0295 309.976 56.1602C307.393 61.0168 304.422 67.1341 302.208 72.1553C292.41 95.5792 287.427 109.683 282.437 129.776C285.934 121.573 289.557 115.771 292.728 111.722C295.321 108.409 297.608 106.273 299.265 104.957C300.093 104.299 300.763 103.847 301.234 103.555C301.47 103.409 301.656 103.303 301.787 103.231C301.852 103.196 301.904 103.168 301.941 103.149C301.943 103.148 301.945 103.147 301.947 103.146C301.976 103.128 302.018 103.101 302.071 103.065C302.186 102.989 302.357 102.875 302.573 102.728C303.006 102.432 303.623 102 304.354 101.458C305.82 100.371 307.732 98.849 309.538 97.0996C311.353 95.3418 313.015 93.3982 314.027 91.4727C314.826 89.9533 315.171 88.5395 314.97 87.2617C312.208 86.1434 309.393 83.6117 307.375 80.1152C305.004 76.0072 305.755 74.0708 306.731 70.9492C307.553 74.6366 312.699 80.4228 312.727 80.4541C312.711 80.4263 308.12 72.3956 308.749 71.7217C310.968 72.6762 314.98 73.9832 316.368 78.3525C317.588 82.1901 318.173 84.8361 316.936 86.873C317.256 88.7453 316.719 90.6487 315.797 92.4033C314.642 94.5993 312.811 96.7144 310.93 98.5361C309.62 99.8051 308.262 100.952 307.051 101.91C308.331 101.561 309.782 101.128 311.295 100.606C313.719 99.7703 316.281 98.7149 318.545 97.4258C320.82 96.1305 322.728 94.637 323.919 92.9551L323.928 92.9424L323.937 92.9307C326.734 89.2242 331.577 83.5873 334.882 80.1855C336.41 74.8783 336.713 70.9592 336.493 68.2383C336.325 66.1601 335.859 64.845 335.455 64.1279C332.95 63.485 330.504 61.7088 328.845 59.0508C326.845 55.8469 327.385 51.7432 328.528 48.9502C329.481 49.0136 333.941 58.6255 333.952 58.6494C333.945 58.6198 332.237 52.0064 329.73 48.4941C332.71 49.7824 336.381 52.3241 337.422 55.8779C338.354 59.0616 338.87 61.6994 337.475 63.6943C337.957 64.759 338.336 66.2225 338.486 68.0771C338.681 70.4789 338.498 73.6133 337.616 77.5654C341.732 73.9137 345.586 71.7599 348.585 70.4961C350.39 69.7356 351.883 69.2988 352.936 69.0508C353.461 68.9269 353.877 68.8499 354.167 68.8037C354.204 68.7978 354.24 68.793 354.272 68.7881C354.353 68.7107 354.452 68.6154 354.569 68.5049C354.917 68.1776 355.422 67.7125 356.06 67.1553C357.333 66.0417 359.139 64.5553 361.269 63.0674C365.144 60.3589 370.252 57.5304 375.229 57.0977C377.545 54.4505 381.733 52.4053 386.685 51.8389C392.005 51.2302 393.669 52.8466 396.458 55.2139C396.458 55.2139 393.775 57.4531 391.855 58.5811C389.153 60.1686 387.234 59.8834 384.104 60.0537C380.825 60.2322 377.661 60.5112 375.877 59.0566C371.334 59.288 366.387 61.9311 362.414 64.707C360.359 66.1432 358.61 67.5817 357.376 68.6611C357.145 68.8629 356.933 69.0526 356.74 69.2266C356.941 69.281 357.156 69.3391 357.383 69.4023C358.844 69.809 360.83 70.3946 362.921 71.1084C365.008 71.8209 367.22 72.668 369.126 73.6016C370.672 74.359 372.112 75.2194 373.104 76.1699C377.858 75.0495 384.083 76.1569 389.851 79.584C396.063 83.2753 396.448 86.5092 397.389 91.5342C397.342 91.5377 392.578 91.8939 389.568 91.6084C385.31 91.2044 380.011 86.9053 380.011 86.9053C379.96 86.8722 372.664 82.1002 372.066 77.9814C371.396 77.1704 370.051 76.2825 368.246 75.3984C366.446 74.517 364.322 73.7001 362.274 73.001C360.231 72.3032 358.284 71.729 356.847 71.3291C356.129 71.1293 355.539 70.973 355.13 70.8672C354.934 70.8166 354.78 70.7769 354.673 70.75C354.622 70.757 354.558 70.7663 354.482 70.7783C354.239 70.8172 353.871 70.8848 353.395 70.9971C352.442 71.2216 351.055 71.626 349.361 72.3398C345.975 73.7665 341.349 76.435 336.49 81.4004C334.517 83.4173 331.928 86.3181 329.572 89.1152C332.059 87.789 334.672 86.8124 337.154 86.3955C339.369 86.0236 341.545 86.0873 343.446 86.8125C345.03 87.4166 346.379 88.4651 347.374 90.0098C347.773 89.8697 349.715 89.4712 352.024 93.834C354.619 98.7357 354.603 100.983 353.287 104.459C352.23 104.094 351.051 102.023 351.039 102.001C351.039 102.001 349.827 101.079 351.205 105.049C347.757 102.437 345.804 101.197 344.227 96.1064C343.36 93.3109 344.45 91.7387 345.563 90.8994C344.814 89.8193 343.849 89.1071 342.733 88.6816C341.265 88.1216 339.473 88.0343 337.485 88.3682C333.532 89.0321 329.055 91.3201 325.46 94.2324C324.029 96.1964 321.883 97.8261 319.535 99.1631C317.127 100.534 314.441 101.638 311.947 102.498C309.45 103.359 307.122 103.985 305.42 104.395C304.568 104.6 303.87 104.751 303.385 104.852C303.142 104.902 302.952 104.94 302.821 104.965C302.802 104.969 302.784 104.971 302.768 104.975C302.759 104.979 302.75 104.984 302.741 104.989C302.643 105.043 302.49 105.129 302.287 105.255C301.881 105.506 301.275 105.915 300.509 106.523C298.977 107.741 296.801 109.764 294.303 112.955C289.307 119.336 283.007 130.402 277.994 149.05L276.051 148.578C283.027 116.487 287.696 101.663 300.37 71.3662L300.378 71.3486C300.381 71.3421 300.384 71.3356 300.387 71.3291C300.359 71.3895 300.383 71.3719 300.389 71.1943C300.393 71.0372 300.381 70.8175 300.345 70.5322C300.272 69.9626 300.113 69.2143 299.874 68.3359C299.396 66.5835 298.621 64.3986 297.666 62.2432C296.709 60.0832 295.589 57.993 294.435 56.4102C293.857 55.6188 293.289 54.9803 292.75 54.5254C292.563 54.3673 292.385 54.238 292.219 54.1328C290.794 54.3055 288.195 54.0186 283.678 51.8799C276.621 46.087 276.029 41.6776 275 36.5566C276.622 36.7112 289.536 50.7188 289.536 50.7188C289.536 50.7188 283.429 40.232 277.167 35.0918C283.756 36.2482 288.126 39.1677 292.492 44.7275C293.538 46.0591 293.72 50.8661 293.752 52.7656C293.849 52.8399 293.945 52.9167 294.039 52.9961C294.741 53.5882 295.415 54.3618 296.05 55.2314C297.319 56.971 298.505 59.2005 299.494 61.4326C300.485 63.6694 301.297 65.9501 301.804 67.8105C301.826 67.8927 301.846 67.9749 301.867 68.0557C303.841 63.7767 306.137 59.1208 308.195 55.249C308.722 53.4117 308.936 51.5813 309.049 49.6631C309.107 48.6863 309.138 47.6995 309.175 46.6738C309.212 45.6532 309.254 44.5996 309.332 43.5156C309.639 39.2662 310.507 34.5646 313.801 28.9609C313.544 24.9174 315.149 19.9464 318.505 15.5068C322.268 10.528 328.199 8.39362 332.514 8Z" fill="#F0E6DA"/>
<path d="M72.6201 0C72.3383 1.50969 85.5967 15.8756 85.625 15.9062C85.6178 15.9004 75.9239 8.08482 71.4238 1.48145C72.2454 7.052 74.7512 14.6648 79.8955 19.0449C84.5218 22.9839 88.4564 25.849 92.1504 25.248C95.2942 30.8543 96.1414 35.5666 96.4551 39.9082C96.5398 41.0803 96.5859 42.227 96.627 43.3672C96.6679 44.5023 96.7041 45.6385 96.7705 46.7627C96.8428 47.9868 96.9543 49.2125 97.1465 50.4473C96.75 50.1335 96.3157 49.8006 95.8506 49.4541C93.9692 48.0525 91.5515 46.4072 89.0225 44.8848C86.4985 43.3654 83.8337 41.951 81.4639 41.0283C80.3395 40.5906 79.2558 40.2541 78.2686 40.0742C78.2694 40.0153 78.2697 39.9817 78.2695 39.9785C78.2695 39.9785 78.9988 37.4129 70.9307 35.0254C62.8628 32.638 59.6502 32.9225 55.1973 34.8359C56.1491 36.0058 59.619 37.1136 59.624 37.1152C59.6368 37.1243 61.4102 38.3873 55.1895 37.2842C60.3185 40.9162 62.8814 43.0019 70.8105 44.2041C75.2155 44.8719 77.0206 43.4006 77.7598 42.0146C77.7675 42.0159 77.7754 42.0173 77.7832 42.0186C78.6287 42.1597 79.6276 42.4592 80.7383 42.8916C82.959 43.7562 85.515 45.107 87.9912 46.5977C90.4621 48.0851 92.8248 49.694 94.6553 51.0576C95.5708 51.7396 96.3459 52.3551 96.9307 52.8584C97.5068 53.3543 97.8287 53.6854 97.9482 53.8428C100.842 59.2837 104.172 66.1395 106.653 71.7666C117.865 98.5694 123.446 114.475 129.159 137.777C125.067 127.85 120.784 120.931 117.062 116.179C114.165 112.478 111.612 110.093 109.765 108.626C108.841 107.892 108.095 107.388 107.571 107.063C107.309 106.901 107.103 106.785 106.958 106.706C106.886 106.667 106.829 106.636 106.788 106.615C106.784 106.613 106.779 106.61 106.775 106.608C106.743 106.587 106.694 106.555 106.631 106.514C106.501 106.428 106.31 106.301 106.067 106.136C105.582 105.804 104.889 105.319 104.069 104.711C102.426 103.492 100.282 101.785 98.2559 99.8223C96.2205 97.8509 94.3497 95.6656 93.208 93.4941C92.3212 91.8073 91.9215 90.2205 92.1299 88.7744C95.2618 87.5498 98.4708 84.6927 100.761 80.7246C103.414 76.1263 102.573 73.9582 101.479 70.4639C100.558 74.6026 94.7686 81.1035 94.7686 81.1035C94.7869 81.0715 99.9265 72.0827 99.2217 71.3291C96.7374 72.3976 92.2476 73.8609 90.6934 78.752C89.2981 83.1426 88.6461 86.1384 90.1543 88.4385C89.8475 90.4583 90.4331 92.5142 91.4375 94.4248C92.7214 96.8668 94.7628 99.2243 96.8643 101.26C98.4953 102.839 100.192 104.25 101.656 105.388C100.089 104.973 98.2555 104.438 96.333 103.775C93.6148 102.838 90.7402 101.653 88.1973 100.205C85.6437 98.751 83.491 97.069 82.1436 95.166L82.1348 95.1533L82.125 95.1416C78.9912 90.9889 73.5596 84.6672 69.8633 80.8652C68.1422 74.8989 67.7987 70.488 68.0469 67.4199C68.2283 65.1779 68.7185 63.7123 69.1689 62.8691C72.0279 62.1848 74.8354 60.1771 76.7275 57.1455C78.9656 53.5593 78.3603 48.9662 77.0811 45.8398C76.013 45.9109 71.0098 56.6963 71.0098 56.6963C71.0099 56.696 72.9233 49.2684 75.7354 45.3281C72.4005 46.7702 68.2912 49.6157 67.126 53.5938C66.0643 57.2184 65.4835 60.2119 67.1475 62.458C66.6287 63.6267 66.2171 65.2273 66.0527 67.2588C65.8306 70.0058 66.0494 73.6202 67.1045 78.2051C62.4045 73.977 57.9968 71.5054 54.584 70.0674C52.5698 69.2187 50.9044 68.7313 49.7324 68.4551C49.1465 68.317 48.6837 68.2319 48.3623 68.1807C48.3075 68.1719 48.2565 68.1651 48.21 68.1582C48.1157 68.0672 47.9949 67.9523 47.8496 67.8154C47.4616 67.4499 46.8968 66.9294 46.1846 66.3066C44.7612 65.0621 42.7423 63.4017 40.3633 61.7393C36.0593 58.7317 30.4155 55.6049 24.918 55.0879C22.3497 52.0621 17.605 49.7156 11.9824 49.0723C6.02688 48.3909 4.1636 50.2007 1.04199 52.8506C1.04199 52.8506 4.04443 55.3565 6.19336 56.6191C9.21847 58.3966 11.3667 58.0778 14.8701 58.2686C18.6233 58.4729 22.2434 58.7953 24.2129 57.04C29.2993 57.3432 34.8052 60.2955 39.2178 63.3789C41.5229 64.9897 43.4838 66.6021 44.8682 67.8125C45.1935 68.097 45.4861 68.3596 45.7441 68.5938C45.4613 68.67 45.1494 68.7542 44.8135 68.8477C43.1788 69.3025 40.9584 69.9578 38.6211 70.7559C36.2876 71.5527 33.8166 72.4992 31.6895 73.541C29.989 74.3739 28.416 75.3115 27.3223 76.3398C21.9839 75.031 14.9499 76.2602 8.4375 80.1299C1.48381 84.2618 1.05287 87.882 0 93.5068C0.0523169 93.5108 5.38488 93.9095 8.75391 93.5898C13.5202 93.1376 19.4521 88.3252 19.4521 88.3252C19.4783 88.3081 27.9315 82.7883 28.3711 78.1221C29.1719 77.2319 30.6464 76.2788 32.5693 75.3369C34.5902 74.3471 36.9734 73.4318 39.2676 72.6484C41.5578 71.8664 43.7393 71.2225 45.3496 70.7744C46.1539 70.5506 46.8148 70.3764 47.2734 70.2578C47.5027 70.1985 47.6818 70.1523 47.8027 70.1221C47.8047 70.1216 47.8067 70.1206 47.8086 70.1201C47.8702 70.1284 47.95 70.1398 48.0469 70.1553C48.3223 70.1992 48.7374 70.275 49.2734 70.4014C50.3458 70.6541 51.9045 71.1083 53.8076 71.9102C57.6114 73.5129 62.8031 76.5097 68.2539 82.0801C70.5798 84.4571 73.6683 87.9281 76.4121 91.208C73.4737 89.5748 70.355 88.3674 67.4053 87.8721C64.9395 87.4581 62.5273 87.5311 60.4248 88.333C58.684 88.9971 57.1996 90.1473 56.1006 91.8428C56.0803 91.8373 56.0693 91.834 56.0693 91.834C56.0342 91.8161 53.6625 90.636 50.7793 96.082C47.8747 101.569 47.8946 104.083 49.3672 107.975C50.5562 107.564 51.8828 105.223 51.8828 105.223C51.8828 105.223 53.2402 104.191 51.6973 108.635C55.5565 105.711 57.7432 104.323 59.5088 98.625C60.5032 95.4156 59.1946 93.6474 57.916 92.7266C58.7686 91.4989 59.867 90.6869 61.1377 90.2021C62.8072 89.5654 64.8355 89.4688 67.0742 89.8447C71.5298 90.5929 76.5654 93.1711 80.6035 96.4453C82.1912 98.6298 84.582 100.448 87.208 101.943C89.8946 103.473 92.893 104.705 95.6807 105.666C98.4718 106.629 101.074 107.328 102.977 107.786C103.929 108.015 104.708 108.185 105.251 108.298C105.522 108.354 105.735 108.396 105.88 108.424C105.908 108.429 105.933 108.433 105.956 108.438C105.97 108.445 105.986 108.454 106.003 108.463C106.115 108.524 106.289 108.622 106.519 108.764C106.977 109.048 107.659 109.507 108.521 110.191C110.243 111.56 112.685 113.832 115.487 117.411C121.091 124.569 128.149 136.971 133.764 157.858L135.707 157.386C127.899 121.471 122.675 104.884 108.491 70.9775L108.483 70.96L108.482 70.957C108.482 70.9508 108.465 70.8888 108.461 70.7422C108.456 70.558 108.47 70.3054 108.512 69.9824C108.594 69.3373 108.773 68.4939 109.042 67.5078C109.578 65.5398 110.448 63.0884 111.519 60.6709C112.592 58.2487 113.85 55.9003 115.149 54.1191C115.799 53.2288 116.441 52.5056 117.054 51.9883C117.224 51.845 117.387 51.7219 117.544 51.6162C119.095 51.8566 122.032 51.6072 127.287 49.1191C135.186 42.6347 135.849 37.6981 137 31.9658C135.188 32.1385 120.78 47.7629 120.729 47.8184C120.764 47.7576 127.583 36.0651 134.574 30.3262C127.199 31.6206 122.308 34.8887 117.42 41.1123C116.22 42.64 116.036 48.2559 116.008 50.2637C115.926 50.3275 115.844 50.3917 115.765 50.459C114.989 51.1136 114.24 51.9716 113.533 52.9404C112.119 54.8783 110.795 57.366 109.69 59.8604C108.583 62.3593 107.678 64.9064 107.112 66.9824C107.057 67.185 107.006 67.3844 106.957 67.5791C104.715 62.7034 102.082 57.3583 99.7285 52.9316C99.1333 50.8601 98.8938 48.7986 98.7666 46.6445C98.7019 45.5493 98.6664 44.4424 98.625 43.2949C98.5838 42.1528 98.5377 40.9755 98.4502 39.7646C98.1103 35.0597 97.1555 29.8624 93.5537 23.6768C93.913 19.1128 92.116 13.4512 88.3008 8.40332C84.0884 2.83012 77.4495 0.440606 72.6201 0Z" fill="#F0E6DA"/>
<path d="M177.198 39.2103C178.077 40.2659 173.993 57.2834 173.993 57.2834C173.993 57.2834 178.146 46.9573 178.776 39.8438C180.564 44.5455 181.93 51.574 179.829 57.2323C177.96 62.2629 176.162 66.1811 173.085 67.3731C173.072 73.1167 174.464 77.1554 176.111 80.6752C176.556 81.6241 177.019 82.5366 177.484 83.4434C177.947 84.3457 178.414 85.2485 178.853 86.1554C179.292 87.0638 179.71 87.9879 180.078 88.9479C180.223 88.602 180.381 88.2367 180.551 87.8562C181.408 85.9399 182.577 83.599 183.887 81.306C185.194 79.0183 186.658 76.7478 188.109 74.9885C188.801 74.1491 189.509 73.4052 190.211 72.8272C190.056 72.6403 188.836 70.8566 193.787 65.7837C199.036 60.4043 201.665 59.2247 205.972 58.775C205.741 60.0934 203.546 62.4478 203.514 62.4821C203.514 62.4821 202.661 64.2662 207.046 60.6805C204.63 65.749 203.541 68.4936 197.883 72.8884C194.824 75.2638 192.802 74.9863 191.607 74.2709C191.592 74.283 191.576 74.2948 191.56 74.3072C190.97 74.7798 190.327 75.4431 189.652 76.2615C188.303 77.8973 186.903 80.0592 185.623 82.2985C184.347 84.5326 183.208 86.8145 182.376 88.6728C181.961 89.6022 181.626 90.4171 181.39 91.0614C181.159 91.6949 181.057 92.0817 181.033 92.2448C181.149 97.7441 181.542 104.533 182.06 109.997C184.941 135.223 187.476 149.965 192.928 169.938C191.976 161.071 192.307 154.238 193.098 149.157C193.744 145 194.698 142.02 195.501 140.062C195.903 139.084 196.267 138.362 196.536 137.877C196.671 137.635 196.781 137.451 196.861 137.325C196.9 137.262 196.932 137.213 196.955 137.178C196.957 137.176 196.958 137.174 196.959 137.173C196.975 137.142 196.998 137.098 197.028 137.042C197.091 136.919 197.184 136.736 197.301 136.502C197.535 136.032 197.863 135.355 198.236 134.524C198.984 132.86 199.91 130.599 200.633 128.19C201.359 125.77 201.861 123.262 201.805 121.088C201.76 119.372 201.372 117.969 200.572 116.953C197.616 117.324 193.923 116.489 190.455 114.422C186.381 111.994 186.091 109.937 185.42 106.736C187.936 109.553 195.252 112.092 195.291 112.106C195.264 112.089 187.337 107.321 187.558 106.426C189.961 106.175 194.099 105.358 197.444 108.494C200.381 111.248 202.183 113.272 202.098 115.654C203.291 117.132 203.752 119.055 203.803 121.036C203.868 123.517 203.301 126.257 202.549 128.765C202.025 130.512 201.4 132.176 200.81 133.603C201.757 132.673 202.812 131.587 203.878 130.393C205.586 128.48 207.306 126.309 208.653 124.079C210.006 121.838 210.943 119.603 211.162 117.554L211.163 117.538L211.165 117.524C211.797 112.924 213.273 105.64 214.497 101.058C213.241 95.6796 211.592 92.1111 210.072 89.8437C208.911 88.112 207.863 87.1916 207.16 86.7629C204.66 87.4243 201.658 87.0682 198.913 85.558C195.604 83.7376 194.072 79.8922 193.706 76.8967C194.569 76.4869 203.153 82.6993 203.174 82.7148C203.153 82.6927 198.435 77.7539 194.533 75.9119C197.762 75.5821 202.207 76.0086 204.85 78.6023C207.218 80.9259 208.956 82.9763 208.711 85.3987C209.652 86.0924 210.697 87.1847 211.733 88.7302C213.075 90.7317 214.445 93.5565 215.605 97.4362C217.415 92.2402 219.727 88.4794 221.728 85.9125C222.932 84.3677 224.023 83.2576 224.82 82.5275C225.218 82.1628 225.544 81.8925 225.774 81.7108C225.803 81.6876 225.832 81.6661 225.858 81.6457C225.891 81.5389 225.931 81.4074 225.979 81.2537C226.123 80.7984 226.337 80.1457 226.621 79.3484C227.189 77.7548 228.04 75.5759 229.172 73.238C231.233 68.9823 234.311 64.0204 238.443 61.214C239.172 57.7731 241.83 53.9436 245.875 51.0326C250.221 47.9047 252.463 48.503 256.052 49.208C256.052 49.208 254.804 52.4719 253.679 54.3933C252.095 57.0979 250.281 57.7856 247.633 59.4618C244.858 61.2181 242.232 63.0063 239.965 62.6073C236.112 65.0268 233.085 69.7483 230.973 74.11C229.88 76.3665 229.056 78.4755 228.505 80.0201C228.402 80.3088 228.31 80.5779 228.226 80.8239C228.428 80.7736 228.644 80.7194 228.873 80.6637C230.347 80.3053 232.366 79.847 234.539 79.4497C236.708 79.0531 239.053 78.7126 241.172 78.5971C242.527 78.5233 243.856 78.5387 245.01 78.7168C250.188 75.4311 269.015 81.2261 269.071 81.2434L254.071 81.2433C254.084 81.253 257.597 83.8238 271.071 83.8238C271.071 83.8238 269.653 83.9071 266.873 85.4888C262.978 87.7052 256.298 86.225 256.237 86.2115C256.237 86.2115 246.85 85.3856 244.699 80.6907C243.783 80.5508 242.621 80.5219 241.281 80.5949C239.28 80.7039 237.027 81.028 234.899 81.4171C232.775 81.8055 230.795 82.2546 229.345 82.6071C228.621 82.7831 228.03 82.9345 227.622 83.0419C227.426 83.0932 227.272 83.1338 227.166 83.1627C227.124 83.1938 227.073 83.2329 227.013 83.2803C226.819 83.4331 226.531 83.6718 226.17 84.0022C225.448 84.6632 224.436 85.6928 223.306 87.1427C221.047 90.0406 218.311 94.6277 216.494 101.333C215.756 104.057 214.912 107.852 214.222 111.443C215.745 109.072 217.549 106.944 219.512 105.369C221.263 103.963 223.193 102.957 225.207 102.661C226.884 102.416 228.573 102.673 230.196 103.535C230.475 103.218 231.975 101.923 236.121 104.603C240.778 107.615 241.86 109.584 242.409 113.26C241.309 113.458 239.268 112.225 239.247 112.212C239.247 112.212 237.739 111.999 240.88 114.791C236.596 114.194 234.285 114.065 230.424 110.392C228.304 108.375 228.487 106.471 229.05 105.195C227.868 104.618 226.678 104.468 225.497 104.641C223.942 104.869 222.336 105.667 220.764 106.929C217.637 109.438 214.847 113.62 213.13 117.916C212.84 120.329 211.762 122.799 210.366 125.112C208.933 127.484 207.128 129.758 205.371 131.726C203.611 133.697 201.885 135.378 200.599 136.567C199.956 137.162 199.421 137.634 199.046 137.959C198.859 138.122 198.711 138.248 198.609 138.333C198.595 138.346 198.58 138.357 198.567 138.368C198.562 138.376 198.557 138.385 198.551 138.394C198.492 138.488 198.4 138.639 198.285 138.847C198.053 139.265 197.724 139.917 197.352 140.822C196.609 142.632 195.698 145.46 195.074 149.465C193.828 157.473 193.731 170.206 198.458 188.928L196.531 189.465C186.957 158.051 183.797 142.834 180.071 110.205L180.069 110.186C180.069 110.179 180.068 110.171 180.067 110.164C180.072 110.231 180.086 110.203 180.003 110.046C179.931 109.906 179.813 109.721 179.642 109.489C179.3 109.028 178.797 108.452 178.159 107.802C176.887 106.506 175.144 104.977 173.258 103.562C171.369 102.144 169.371 100.866 167.591 100.048C166.701 99.6395 165.893 99.3594 165.201 99.2256C164.96 99.1791 164.742 99.1528 164.545 99.1422C163.386 99.9882 160.977 101.007 155.991 101.345C147.004 99.733 144.335 96.1735 140.938 92.206C142.429 91.5495 160.537 97.4718 160.537 97.4718C160.537 97.4718 150.089 91.2999 142.114 89.8698C148.43 87.6632 153.669 88.0785 160.193 90.7999C161.756 91.4517 164.261 95.5584 165.216 97.2006C165.337 97.2179 165.458 97.2383 165.579 97.2616C166.481 97.4358 167.447 97.7819 168.425 98.2312C170.382 99.1299 172.506 100.497 174.458 101.962C176.415 103.431 178.236 105.026 179.587 106.402C179.646 106.463 179.704 106.525 179.762 106.585C179.396 101.887 179.128 96.7022 179.034 92.3185C178.598 90.4577 177.89 88.756 177.053 87.0265C176.626 86.1458 176.172 85.2693 175.704 84.356C175.238 83.4473 174.76 82.5071 174.3 81.5228C172.493 77.6641 170.956 73.137 171.096 66.6384C168.898 63.2348 167.873 58.1123 168.635 52.5997C169.489 46.4175 173.624 41.6596 177.198 39.2103Z" fill="#F0E6DA"/>
</svg>
